<?xml version="1.0" encoding="UTF-8"?>
<svg id="layout" xmlns="http://www.w3.org/2000/svg" version="1.1" viewBox="0 0 1000 234">
  <!-- Generator: Adobe Illustrator 30.2.1, SVG Export Plug-In . SVG Version: 2.1.1 Build 1)  -->
  <defs>
    <style>
      .st0 {
        stroke-linejoin: round;
      }

      .st0, .st1 {
        fill: none;
        stroke: #7f7f7f;
        stroke-linecap: round;
        stroke-width: 5px;
      }

      .st2 {
        fill: #a7a7a7;
      }

      .st3 {
        fill: #fff;
      }
    </style>
  </defs>
  <path id="body_x5F_bg" class="st2" d="M984.97,0H15.03C6.73,0,0,6.73,0,15.03v202.4c0,8.3,6.73,15.03,15.03,15.03h969.94c8.3,0,15.03-6.73,15.03-15.03V15.03C1000,6.73,993.27,0,984.97,0"/>
  <line id="faderTrack_x5F_1" class="st0" x1="344.64" y1="88.67" x2="344.64" y2="213.5"/>
  <line id="faderTrack_x5F_2" class="st0" x1="431.81" y1="88.67" x2="431.81" y2="213.5"/>
  <line id="faderTrack_x5F_3" class="st0" x1="518.99" y1="88.67" x2="518.99" y2="213.5"/>
  <line id="faderTrack_x5F_4" class="st0" x1="606.17" y1="88.67" x2="606.17" y2="213.5"/>
  <line id="faderTrack_x5F_5" class="st0" x1="693.33" y1="88.67" x2="693.33" y2="213.5"/>
  <line id="faderTrack_x5F_6" class="st0" x1="780.51" y1="88.67" x2="780.51" y2="213.5"/>
  <line id="faderTrack_x5F_7" class="st0" x1="867.68" y1="88.67" x2="867.68" y2="213.5"/>
  <line id="faderTrack_x5F_8" class="st0" x1="954.86" y1="88.67" x2="954.86" y2="213.5"/>
  <path id="power_x5F_led" class="st3" d="M15.98,15.04h14.03c1.66,0,3.01,1.35,3.01,3.01s-1.35,3.01-3.01,3.01h-14.03c-1.66,0-3.01-1.35-3.01-3.01s1.35-3.01,3.01-3.01Z"/>
  <path id="cycle" class="st3" d="M34.52,141.29h19.04c5.26,0,9.52,4.26,9.52,9.52s-4.26,9.52-9.52,9.52h-19.04c-5.26,0-9.52-4.26-9.52-9.52s4.26-9.52,9.52-9.52Z"/>
  <rect id="rew" class="st3" x="26" y="180.37" width="36.07" height="36.07" rx="8.02" ry="8.02"/>
  <rect id="ff" class="st3" x="75.1" y="180.37" width="36.07" height="36.07" rx="8.02" ry="8.02"/>
  <rect id="stop" class="st3" x="124.2" y="180.37" width="36.07" height="36.07" rx="8.02" ry="8.02"/>
  <rect id="play" class="st3" x="173.3" y="180.37" width="36.07" height="36.07" rx="8.02" ry="8.02"/>
  <rect id="rec" class="st3" x="222.39" y="180.37" width="36.07" height="36.07" rx="8.02" ry="8.02"/>
  <path id="prev_x5F_track" class="st3" d="M34.52,101.21h19.04c5.26,0,9.52,4.26,9.52,9.52s-4.26,9.52-9.52,9.52h-19.04c-5.26,0-9.52-4.26-9.52-9.52s4.26-9.52,9.52-9.52Z"/>
  <path id="next_x5F_track" class="st3" d="M83.62,101.21h19.04c5.26,0,9.52,4.26,9.52,9.52s-4.26,9.52-9.52,9.52h-19.04c-5.26,0-9.52-4.26-9.52-9.52s4.26-9.52,9.52-9.52Z"/>
  <path id="set_x5F_marker" class="st3" d="M132.72,141.29h19.04c5.26,0,9.52,4.26,9.52,9.52s-4.26,9.52-9.52,9.52h-19.04c-5.26,0-9.52-4.26-9.52-9.52s4.26-9.52,9.52-9.52Z"/>
  <path id="prev_x5F_marker" class="st3" d="M181.81,141.29h19.04c5.26,0,9.52,4.26,9.52,9.52s-4.26,9.52-9.52,9.52h-19.04c-5.26,0-9.52-4.26-9.52-9.52s4.26-9.52,9.52-9.52Z"/>
  <path id="next_x5F_marker" class="st3" d="M230.91,141.29h19.04c5.26,0,9.52,4.26,9.52,9.52s-4.26,9.52-9.52,9.52h-19.04c-5.26,0-9.52-4.26-9.52-9.52s4.26-9.52,9.52-9.52Z"/>
  <rect id="fader_x5F_1" class="st3" x="329.61" y="200.41" width="30.06" height="12.02" rx="3.01" ry="3.01"/>
  <rect id="fader_x5F_2" class="st3" x="416.78" y="200.41" width="30.06" height="12.02" rx="3.01" ry="3.01"/>
  <rect id="fader_x5F_3" class="st3" x="503.96" y="200.41" width="30.06" height="12.02" rx="3.01" ry="3.01"/>
  <rect id="fader_x5F_4" class="st3" x="591.13" y="200.41" width="30.06" height="12.02" rx="3.01" ry="3.01"/>
  <rect id="fader_x5F_5" class="st3" x="678.31" y="200.41" width="30.06" height="12.02" rx="3.01" ry="3.01"/>
  <rect id="fader_x5F_6" class="st3" x="765.48" y="200.41" width="30.06" height="12.02" rx="3.01" ry="3.01"/>
  <rect id="fader_x5F_7" class="st3" x="852.65" y="200.41" width="30.06" height="12.02" rx="3.01" ry="3.01"/>
  <rect id="fader_x5F_8" class="st3" x="939.83" y="200.41" width="30.06" height="12.02" rx="3.01" ry="3.01"/>
  <rect id="solo_x5F_1" class="st3" x="290.53" y="88.19" width="29.06" height="29.06" rx="5.01" ry="5.01"/>
  <rect id="solo_x5F_2" class="st3" x="377.7" y="88.19" width="29.06" height="29.06" rx="5.01" ry="5.01"/>
  <rect id="solo_x5F_3" class="st3" x="464.88" y="88.19" width="29.06" height="29.06" rx="5.01" ry="5.01"/>
  <rect id="solo_x5F_4" class="st3" x="552.05" y="88.19" width="29.06" height="29.06" rx="5.01" ry="5.01"/>
  <rect id="solo_x5F_5" class="st3" x="639.23" y="88.19" width="29.06" height="29.06" rx="5.01" ry="5.01"/>
  <rect id="solo_x5F_6" class="st3" x="726.4" y="88.19" width="29.06" height="29.06" rx="5.01" ry="5.01"/>
  <rect id="solo_x5F_7" class="st3" x="813.58" y="88.19" width="29.06" height="29.06" rx="5.01" ry="5.01"/>
  <rect id="solo_x5F_8" class="st3" x="900.75" y="88.19" width="29.06" height="29.06" rx="5.01" ry="5.01"/>
  <rect id="mute_x5F_1" class="st3" x="290.53" y="136.28" width="29.06" height="29.06" rx="5.01" ry="5.01"/>
  <rect id="mute_x5F_2" class="st3" x="377.7" y="136.28" width="29.06" height="29.06" rx="5.01" ry="5.01"/>
  <rect id="mute_x5F_3" class="st3" x="464.88" y="136.28" width="29.06" height="29.06" rx="5.01" ry="5.01"/>
  <rect id="mute_x5F_4" class="st3" x="552.05" y="136.28" width="29.06" height="29.06" rx="5.01" ry="5.01"/>
  <rect id="mute_x5F_5" class="st3" x="639.23" y="136.28" width="29.06" height="29.06" rx="5.01" ry="5.01"/>
  <rect id="mute_x5F_6" class="st3" x="726.4" y="136.28" width="29.06" height="29.06" rx="5.01" ry="5.01"/>
  <rect id="mute_x5F_7" class="st3" x="813.58" y="136.28" width="29.06" height="29.06" rx="5.01" ry="5.01"/>
  <rect id="mute_x5F_8" class="st3" x="900.75" y="136.28" width="29.06" height="29.06" rx="5.01" ry="5.01"/>
  <rect id="rec_x5F_1" class="st3" x="290.53" y="183.38" width="29.06" height="29.06" rx="5.01" ry="5.01"/>
  <rect id="rec_x5F_2" class="st3" x="377.7" y="183.38" width="29.06" height="29.06" rx="5.01" ry="5.01"/>
  <rect id="rec_x5F_3" class="st3" x="464.88" y="183.38" width="29.06" height="29.06" rx="5.01" ry="5.01"/>
  <rect id="rec_x5F_4" class="st3" x="552.05" y="183.38" width="29.06" height="29.06" rx="5.01" ry="5.01"/>
  <rect id="rec_x5F_5" class="st3" x="639.23" y="183.38" width="29.06" height="29.06" rx="5.01" ry="5.01"/>
  <rect id="rec_x5F_6" class="st3" x="726.4" y="183.38" width="29.06" height="29.06" rx="5.01" ry="5.01"/>
  <rect id="rec_x5F_7" class="st3" x="813.58" y="183.38" width="29.06" height="29.06" rx="5.01" ry="5.01"/>
  <rect id="rec_x5F_8" class="st3" x="900.75" y="183.38" width="29.06" height="29.06" rx="5.01" ry="5.01"/>
  <g id="knob_x5F_1">
    <circle id="body" class="st3" cx="344.64" cy="35.08" r="15.53"/>
    <line id="indicator" class="st1" x1="342.93" y1="38.22" x2="337.13" y2="48.72"/>
  </g>
  <g id="knob_x5F_2">
    <circle id="body1" data-name="body" class="st3" cx="431.81" cy="35.08" r="15.53"/>
    <line id="indicator1" data-name="indicator" class="st1" x1="430.1" y1="38.22" x2="424.3" y2="48.72"/>
  </g>
  <g id="knob_x5F_3">
    <circle id="body2" data-name="body" class="st3" cx="518.98" cy="35.08" r="15.53"/>
    <line id="indicator2" data-name="indicator" class="st1" x1="517.27" y1="38.22" x2="511.47" y2="48.72"/>
  </g>
  <g id="knob_x5F_4">
    <circle id="body3" data-name="body" class="st3" cx="606.15" cy="35.08" r="15.53"/>
    <line id="indicator3" data-name="indicator" class="st1" x1="604.44" y1="38.22" x2="598.64" y2="48.72"/>
  </g>
  <g id="knob_x5F_5">
    <circle id="body4" data-name="body" class="st3" cx="693.32" cy="35.08" r="15.53"/>
    <line id="indicator4" data-name="indicator" class="st1" x1="691.61" y1="38.22" x2="685.81" y2="48.72"/>
  </g>
  <g id="knob_x5F_6">
    <circle id="body5" data-name="body" class="st3" cx="780.49" cy="35.08" r="15.53"/>
    <line id="indicator5" data-name="indicator" class="st1" x1="778.78" y1="38.22" x2="772.98" y2="48.72"/>
  </g>
  <g id="knob_x5F_7">
    <circle id="body6" data-name="body" class="st3" cx="867.66" cy="35.08" r="15.53"/>
    <line id="indicator6" data-name="indicator" class="st1" x1="865.95" y1="38.22" x2="860.15" y2="48.72"/>
  </g>
  <g id="knob_x5F_8">
    <circle id="body7" data-name="body" class="st3" cx="954.83" cy="35.08" r="15.53"/>
    <line id="indicator7" data-name="indicator" class="st1" x1="953.12" y1="38.22" x2="947.32" y2="48.72"/>
  </g>
</svg>