<?xml version="1.0" encoding="UTF-8"?>
<svg xmlns="http://www.w3.org/2000/svg" width="316.39mm" height="74.09mm" viewBox="0 0 896.85 210.01">
  <defs>
    <style>
      .cls-1 {
        fill: none;
        stroke: #231916;
        stroke-width: .25px;
      }
    </style>
  </defs>
  <g id="Body">
    <path id="Outline" class="cls-1" d="M14.96.12h866.92c8.19,0,14.84,6.65,14.84,14.84v180.08c0,8.19-6.65,14.84-14.84,14.84H14.96c-8.19,0-14.84-6.65-14.84-14.84V14.96C.12,6.77,6.77.12,14.96.12Z"/>
  </g>
  <g id="Power_LED" data-name="Power LED">
    <path id="LED" class="cls-1" d="M31.02,15.72c0,1.57-1.27,2.84-2.83,2.84h-11.34c-1.57,0-2.83-1.27-2.83-2.84h0c0-1.57,1.27-2.83,2.83-2.83h11.34c1.57,0,2.83,1.27,2.83,2.83h0Z"/>
  </g>
  <g id="Parameters">
    <g id="param_8">
      <path id="fader" class="cls-1" d="M861.11,185.3c0,2.35-1.9,4.25-4.25,4.25h0c-2.35,0-4.25-1.9-4.25-4.25v-101.5c0-2.35,1.9-4.25,4.25-4.25h0c2.35,0,4.25,1.9,4.25,4.25v101.5Z"/>
      <circle id="knob" class="cls-1" cx="856.67" cy="30.3" r="13.75"/>
      <path id="rec" class="cls-1" d="M812.47,164.47h16.87c2.54,0,4.61,2.06,4.61,4.61v16.87c0,2.54-2.06,4.61-4.61,4.61h-16.87c-2.54,0-4.61-2.06-4.61-4.61v-16.87c0-2.54,2.06-4.61,4.61-4.61Z"/>
      <path id="mute" class="cls-1" d="M812.47,121.58h16.87c2.54,0,4.61,2.06,4.61,4.61v16.87c0,2.54-2.06,4.61-4.61,4.61h-16.87c-2.54,0-4.61-2.06-4.61-4.61v-16.87c0-2.54,2.06-4.61,4.61-4.61Z"/>
      <rect id="solo" class="cls-1" x="807.86" y="78.68" width="26.08" height="26.08" rx="4.61" ry="4.61"/>
    </g>
    <g id="param_7">
      <path id="fader-2" data-name="fader" class="cls-1" d="M783.02,185.3c0,2.35-1.9,4.25-4.25,4.25h0c-2.35,0-4.25-1.9-4.25-4.25v-101.5c0-2.35,1.9-4.25,4.25-4.25h0c2.35,0,4.25,1.9,4.25,4.25v101.5Z"/>
      <circle id="knob-2" data-name="knob" class="cls-1" cx="778.58" cy="30.3" r="13.75"/>
      <path id="rec-2" data-name="rec" class="cls-1" d="M734.37,164.47h16.87c2.54,0,4.61,2.06,4.61,4.61v16.87c0,2.54-2.06,4.61-4.61,4.61h-16.87c-2.54,0-4.61-2.06-4.61-4.61v-16.87c0-2.54,2.06-4.61,4.61-4.61Z"/>
      <rect id="mute-2" data-name="mute" class="cls-1" x="729.76" y="121.58" width="26.08" height="26.08" rx="4.61" ry="4.61"/>
      <rect id="solo-2" data-name="solo" class="cls-1" x="729.76" y="78.68" width="26.08" height="26.08" rx="4.61" ry="4.61"/>
    </g>
    <g id="param_6">
      <path id="fader-3" data-name="fader" class="cls-1" d="M704.92,185.3c0,2.35-1.9,4.25-4.25,4.25h0c-2.35,0-4.25-1.9-4.25-4.25v-101.5c0-2.35,1.9-4.25,4.25-4.25h0c2.35,0,4.25,1.9,4.25,4.25v101.5Z"/>
      <circle id="knob-3" data-name="knob" class="cls-1" cx="700.48" cy="30.3" r="13.75"/>
      <path id="rec-3" data-name="rec" class="cls-1" d="M656.27,164.47h16.87c2.54,0,4.61,2.06,4.61,4.61v16.87c0,2.54-2.06,4.61-4.61,4.61h-16.87c-2.54,0-4.61-2.06-4.61-4.61v-16.87c0-2.54,2.06-4.61,4.61-4.61Z"/>
      <path id="mute-3" data-name="mute" class="cls-1" d="M656.27,121.58h16.87c2.54,0,4.61,2.06,4.61,4.61v16.87c0,2.54-2.06,4.61-4.61,4.61h-16.87c-2.54,0-4.61-2.06-4.61-4.61v-16.87c0-2.54,2.06-4.61,4.61-4.61Z"/>
      <rect id="solo-3" data-name="solo" class="cls-1" x="651.67" y="78.68" width="26.08" height="26.08" rx="4.61" ry="4.61"/>
    </g>
    <g id="param_5">
      <path id="fader-4" data-name="fader" class="cls-1" d="M626.82,185.3c0,2.35-1.9,4.25-4.25,4.25h0c-2.35,0-4.25-1.9-4.25-4.25v-101.5c0-2.35,1.9-4.25,4.25-4.25h0c2.35,0,4.25,1.9,4.25,4.25v101.5Z"/>
      <circle id="knob-4" data-name="knob" class="cls-1" cx="622.38" cy="30.3" r="13.75"/>
      <path id="rec-4" data-name="rec" class="cls-1" d="M578.18,164.47h16.87c2.54,0,4.61,2.06,4.61,4.61v16.87c0,2.54-2.06,4.61-4.61,4.61h-16.87c-2.54,0-4.61-2.06-4.61-4.61v-16.87c0-2.54,2.06-4.61,4.61-4.61Z"/>
      <path id="mute-4" data-name="mute" class="cls-1" d="M578.18,121.58h16.87c2.54,0,4.61,2.06,4.61,4.61v16.87c0,2.54-2.06,4.61-4.61,4.61h-16.87c-2.54,0-4.61-2.06-4.61-4.61v-16.87c0-2.54,2.06-4.61,4.61-4.61Z"/>
      <rect id="solo-4" data-name="solo" class="cls-1" x="573.57" y="78.68" width="26.08" height="26.08" rx="4.61" ry="4.61"/>
    </g>
    <g id="param_4">
      <path id="fader-5" data-name="fader" class="cls-1" d="M548.72,185.3c0,2.35-1.9,4.25-4.25,4.25h0c-2.35,0-4.25-1.9-4.25-4.25v-101.5c0-2.35,1.9-4.25,4.25-4.25h0c2.35,0,4.25,1.9,4.25,4.25v101.5Z"/>
      <circle id="knob-5" data-name="knob" class="cls-1" cx="544.28" cy="30.3" r="13.75"/>
      <path id="rec-5" data-name="rec" class="cls-1" d="M500.08,164.47h16.87c2.54,0,4.61,2.06,4.61,4.61v16.87c0,2.54-2.06,4.61-4.61,4.61h-16.87c-2.54,0-4.61-2.06-4.61-4.61v-16.87c0-2.54,2.06-4.61,4.61-4.61Z"/>
      <path id="mute-5" data-name="mute" class="cls-1" d="M500.08,121.58h16.87c2.54,0,4.61,2.06,4.61,4.61v16.87c0,2.54-2.06,4.61-4.61,4.61h-16.87c-2.54,0-4.61-2.06-4.61-4.61v-16.87c0-2.54,2.06-4.61,4.61-4.61Z"/>
      <rect id="solo-5" data-name="solo" class="cls-1" x="495.47" y="78.68" width="26.08" height="26.08" rx="4.61" ry="4.61"/>
    </g>
    <g id="param_3">
      <path id="fader-6" data-name="fader" class="cls-1" d="M470.4,185.3c0,2.35-1.9,4.25-4.25,4.25h0c-2.35,0-4.25-1.9-4.25-4.25v-101.5c0-2.35,1.9-4.25,4.25-4.25h0c2.35,0,4.25,1.9,4.25,4.25v101.5Z"/>
      <circle id="knob-6" data-name="knob" class="cls-1" cx="465.96" cy="30.3" r="13.75"/>
      <path id="rec-6" data-name="rec" class="cls-1" d="M421.75,164.47h16.87c2.54,0,4.61,2.06,4.61,4.61v16.87c0,2.54-2.06,4.61-4.61,4.61h-16.87c-2.54,0-4.61-2.06-4.61-4.61v-16.87c0-2.54,2.06-4.61,4.61-4.61Z"/>
      <rect id="mute-6" data-name="mute" class="cls-1" x="417.15" y="121.58" width="26.08" height="26.08" rx="4.61" ry="4.61"/>
      <rect id="solo-6" data-name="solo" class="cls-1" x="417.15" y="78.68" width="26.08" height="26.08" rx="4.61" ry="4.61"/>
    </g>
    <g id="param_2">
      <path id="fader-7" data-name="fader" class="cls-1" d="M392.56,185.3c0,2.35-1.9,4.25-4.25,4.25h0c-2.35,0-4.25-1.9-4.25-4.25v-101.5c0-2.35,1.9-4.25,4.25-4.25h0c2.35,0,4.25,1.9,4.25,4.25v101.5Z"/>
      <circle id="knob-7" data-name="knob" class="cls-1" cx="388.12" cy="30.3" r="13.75"/>
      <path id="rec-7" data-name="rec" class="cls-1" d="M343.92,164.47h16.87c2.54,0,4.61,2.06,4.61,4.61v16.87c0,2.54-2.06,4.61-4.61,4.61h-16.87c-2.54,0-4.61-2.06-4.61-4.61v-16.87c0-2.54,2.06-4.61,4.61-4.61Z"/>
      <rect id="mute-7" data-name="mute" class="cls-1" x="339.31" y="121.58" width="26.08" height="26.08" rx="4.61" ry="4.61"/>
      <rect id="solo-7" data-name="solo" class="cls-1" x="339.31" y="78.68" width="26.08" height="26.08" rx="4.61" ry="4.61"/>
    </g>
    <g id="param_1">
      <path id="fader-8" data-name="fader" class="cls-1" d="M314.48,185.3c0,2.35-1.9,4.25-4.25,4.25h0c-2.35,0-4.25-1.9-4.25-4.25v-101.5c0-2.35,1.9-4.25,4.25-4.25h0c2.35,0,4.25,1.9,4.25,4.25v101.5Z"/>
      <circle id="knob-8" data-name="knob" class="cls-1" cx="310.04" cy="30.3" r="13.75"/>
      <path id="rec-8" data-name="rec" class="cls-1" d="M265.83,164.47h16.87c2.54,0,4.61,2.06,4.61,4.61v16.87c0,2.54-2.06,4.61-4.61,4.61h-16.87c-2.54,0-4.61-2.06-4.61-4.61v-16.87c0-2.54,2.06-4.61,4.61-4.61Z"/>
      <path id="mute-8" data-name="mute" class="cls-1" d="M265.83,121.58h16.87c2.54,0,4.61,2.06,4.61,4.61v16.87c0,2.54-2.06,4.61-4.61,4.61h-16.87c-2.54,0-4.61-2.06-4.61-4.61v-16.87c0-2.54,2.06-4.61,4.61-4.61Z"/>
      <rect id="solo-8" data-name="solo" class="cls-1" x="261.22" y="78.68" width="26.08" height="26.08" rx="4.61" ry="4.61"/>
    </g>
  </g>
  <g id="Navigation">
    <g id="Navigation-2" data-name="Navigation">
      <path id="next_marker" class="cls-1" d="M234.12,134.8c0,4.7-3.81,8.5-8.5,8.5h-17.01c-4.7,0-8.5-3.81-8.5-8.5h0c0-4.7,3.81-8.5,8.5-8.5h17.01c4.7,0,8.5,3.81,8.5,8.5h0Z"/>
      <path id="prev_marker" class="cls-1" d="M190.13,134.8c0,4.7-3.81,8.5-8.5,8.5h-17.01c-4.7,0-8.5-3.81-8.5-8.5h0c0-4.7,3.81-8.5,8.5-8.5h17.01c4.7,0,8.5,3.81,8.5,8.5h0Z"/>
      <path id="set_marker" class="cls-1" d="M146.14,134.8c0,4.7-3.81,8.5-8.5,8.5h-17.01c-4.7,0-8.5-3.81-8.5-8.5h0c0-4.7,3.81-8.5,8.5-8.5h17.01c4.7,0,8.5,3.81,8.5,8.5h0Z"/>
      <path id="next_track" class="cls-1" d="M102.02,98.97c0,4.7-3.81,8.5-8.5,8.5h-17.01c-4.7,0-8.5-3.81-8.5-8.5h0c0-4.7,3.81-8.5,8.5-8.5h17.01c4.7,0,8.5,3.81,8.5,8.5h0Z"/>
      <path id="prev_track" class="cls-1" d="M58.02,98.97c0,4.7-3.81,8.5-8.5,8.5h-17.01c-4.7,0-8.5-3.81-8.5-8.5h0c0-4.7,3.81-8.5,8.5-8.5h17.01c4.7,0,8.5,3.81,8.5,8.5h0Z"/>
    </g>
  </g>
  <g id="Transport">
    <g id="Transport-2" data-name="Transport">
      <path id="rec-9" data-name="rec" class="cls-1" d="M208.02,161.48h17.49c4.09,0,7.41,3.32,7.41,7.41v17.49c0,4.09-3.32,7.41-7.41,7.41h-17.49c-4.09,0-7.41-3.32-7.41-7.41v-17.49c0-4.09,3.32-7.41,7.41-7.41Z"/>
      <path id="play" class="cls-1" d="M164.08,161.48h17.49c4.09,0,7.41,3.32,7.41,7.41v17.49c0,4.09-3.32,7.41-7.41,7.41h-17.49c-4.09,0-7.41-3.32-7.41-7.41v-17.49c0-4.09,3.32-7.41,7.41-7.41Z"/>
      <path id="stop" class="cls-1" d="M120.14,161.48h17.49c4.09,0,7.41,3.32,7.41,7.41v17.49c0,4.09-3.32,7.41-7.41,7.41h-17.49c-4.09,0-7.41-3.32-7.41-7.41v-17.49c0-4.09,3.32-7.41,7.41-7.41Z"/>
      <path id="fastforward" class="cls-1" d="M76.2,161.48h17.49c4.09,0,7.41,3.32,7.41,7.41v17.49c0,4.09-3.32,7.41-7.41,7.41h-17.49c-4.09,0-7.41-3.32-7.41-7.41v-17.49c0-4.09,3.32-7.41,7.41-7.41Z"/>
      <path id="rewind" class="cls-1" d="M32.27,161.48h17.49c4.09,0,7.41,3.32,7.41,7.41v17.49c0,4.09-3.32,7.41-7.41,7.41h-17.49c-4.09,0-7.41-3.32-7.41-7.41v-17.49c0-4.09,3.32-7.41,7.41-7.41Z"/>
      <path id="cycle" class="cls-1" d="M58.02,134.8c0,4.7-3.81,8.5-8.5,8.5h-17.01c-4.7,0-8.5-3.81-8.5-8.5h0c0-4.7,3.81-8.5,8.5-8.5h17.01c4.7,0,8.5,3.81,8.5,8.5h0Z"/>
    </g>
  </g>
</svg>